<?xml version="1.0" encoding="utf-8"?>
<!-- Generator: Adobe Illustrator 16.0.0, SVG Export Plug-In . SVG Version: 6.00 Build 0)  -->
<!DOCTYPE svg PUBLIC "-//W3C//DTD SVG 1.1//EN" "http://www.w3.org/Graphics/SVG/1.1/DTD/svg11.dtd">
<svg version="1.1" id="Warstwa_1" xmlns="http://www.w3.org/2000/svg" xmlns:xlink="http://www.w3.org/1999/xlink" x="0px" y="0px"
	 width="254px" height="256px" viewBox="0 0 254 256" enable-background="new 0 0 254 256" xml:space="preserve">
<circle fill="#FFFFFF" stroke="#000000" stroke-width="8" stroke-miterlimit="10" cx="127.499" cy="126.68" r="115.494"/>
<g>
	<g>
		<g>
			<path fill="#010202" d="M127.498,58.847c3.184,0,5.763-2.58,5.763-5.761V31.881c0-3.184-2.579-5.762-5.763-5.762
				s-5.762,2.579-5.762,5.762v21.205C121.736,56.268,124.314,58.847,127.498,58.847z"/>
			<path fill="#010202" d="M188.91,153.412h-16.464l-25.294-73.039c3.355-4.258,5.367-9.626,5.367-15.457
				c0-9.644-5.484-18.029-13.495-22.204v11.934c0,0.942-0.116,1.858-0.332,2.737c1.454,2.152,2.304,4.746,2.304,7.533
				c0,7.441-6.055,13.496-13.496,13.496s-13.496-6.055-13.496-13.496c0-2.788,0.85-5.381,2.304-7.534
				c-0.216-0.878-0.332-1.794-0.332-2.736V42.711c-8.011,4.176-13.497,12.561-13.497,22.204c0,5.832,2.012,11.199,5.369,15.458
				l-25.296,73.039H66.088c-1.504,0-2.729,1.225-2.729,2.73v4.549c0,1.506,1.224,2.73,2.729,2.73h12.997l-6.29,18.16
				c-0.288,0.832,0.153,1.738,0.983,2.027l0.646,0.225l-8.041,23.211c-0.287,0.832,0.153,1.738,0.984,2.027l4.3,1.488
				c0.765,0.266,1.607-0.088,1.956-0.818l10.728-22.473l2.324,0.805c0.83,0.289,1.737-0.152,2.025-0.982l8.199-23.67h25.188v1.412
				c0,2.984,2.428,5.412,5.413,5.412s5.412-2.428,5.412-5.412v-1.412h25.189l8.198,23.67c0.287,0.83,1.195,1.271,2.026,0.982
				l2.324-0.805l10.728,22.473c0.349,0.73,1.192,1.082,1.956,0.818l4.301-1.488c0.831-0.287,1.271-1.195,0.982-2.027l-8.041-23.211
				l0.646-0.225c0.83-0.287,1.271-1.195,0.982-2.027l-6.29-18.16h12.996c1.505,0,2.729-1.225,2.729-2.73v-4.549
				C191.639,154.637,190.415,153.412,188.91,153.412z M132.91,153.412v-1.41c0-2.984-2.426-5.414-5.412-5.414
				s-5.413,2.428-5.413,5.414v1.41h-21.722l22.156-63.975c1.609,0.327,3.273,0.499,4.979,0.499s3.369-0.172,4.979-0.499
				l22.156,63.975H132.91z"/>
		</g>
	</g>
</g>
<line fill="none" stroke="#000000" stroke-width="8" stroke-miterlimit="10" x1="32.496" y1="242.174" x2="222.5" y2="242.174"/>
<line fill="none" stroke="#000000" stroke-width="8" stroke-miterlimit="10" x1="32.498" y1="11.187" x2="222.502" y2="11.187"/>
<g>
</g>
<g>
</g>
<g>
</g>
<g>
</g>
<g>
</g>
<g>
</g>
</svg>
