<?xml version="1.0" encoding="utf-8"?>
<!-- Generator: Adobe Illustrator 16.0.0, SVG Export Plug-In . SVG Version: 6.00 Build 0)  -->
<!DOCTYPE svg PUBLIC "-//W3C//DTD SVG 1.1//EN" "http://www.w3.org/Graphics/SVG/1.1/DTD/svg11.dtd">
<svg version="1.1" id="Warstwa_1" xmlns="http://www.w3.org/2000/svg" xmlns:xlink="http://www.w3.org/1999/xlink" x="0px" y="0px"
	 width="254px" height="256px" viewBox="0 0 254 256" enable-background="new 0 0 254 256" xml:space="preserve">
<circle fill="none" stroke="#FFFFFF" stroke-width="8" stroke-miterlimit="10" cx="127.499" cy="126.68" r="115.494"/>
<path fill="#FFFFFF" d="M127.498,58.847c3.184,0,5.764-2.58,5.764-5.761V31.881c0-3.184-2.58-5.762-5.764-5.762
	c-3.184,0-5.762,2.579-5.762,5.762v21.205C121.736,56.268,124.314,58.847,127.498,58.847z M188.91,153.412h-16.465l-25.293-73.039
	c3.354-4.258,5.367-9.626,5.367-15.457c0-9.644-5.484-18.029-13.496-22.204v11.934c0,0.942-0.115,1.858-0.332,2.737
	c1.455,2.152,2.305,4.746,2.305,7.533c0,7.441-6.055,13.496-13.496,13.496c-7.441,0-13.496-6.055-13.496-13.496
	c0-2.788,0.85-5.381,2.304-7.534c-0.216-0.878-0.332-1.794-0.332-2.736V42.711c-8.011,4.176-13.497,12.561-13.497,22.204
	c0,5.832,2.012,11.199,5.369,15.458l-25.296,73.039H66.088c-1.504,0-2.729,1.225-2.729,2.73v4.549c0,1.506,1.224,2.729,2.729,2.729
	h12.997l-6.29,18.16c-0.288,0.832,0.153,1.737,0.983,2.026l0.646,0.226l-8.041,23.211c-0.287,0.832,0.153,1.738,0.984,2.026
	l4.3,1.488c0.765,0.267,1.607-0.088,1.956-0.817l10.728-22.474l2.324,0.806c0.83,0.288,1.737-0.152,2.025-0.982l8.199-23.67h25.188
	v1.412c0,2.983,2.428,5.412,5.413,5.412c2.984,0,5.412-2.429,5.412-5.412v-1.412h25.189l8.197,23.67
	c0.287,0.83,1.195,1.271,2.026,0.982l2.323-0.806l10.729,22.474c0.35,0.729,1.191,1.082,1.956,0.817l4.301-1.488
	c0.831-0.286,1.271-1.194,0.982-2.026l-8.041-23.211l0.646-0.226c0.83-0.287,1.271-1.194,0.982-2.026l-6.29-18.16h12.996
	c1.505,0,2.729-1.226,2.729-2.729v-4.549C191.639,154.637,190.415,153.412,188.91,153.412z M132.91,153.412v-1.41
	c0-2.984-2.426-5.414-5.412-5.414c-2.986,0-5.413,2.428-5.413,5.414v1.41h-21.722l22.156-63.975
	c1.609,0.327,3.273,0.499,4.979,0.499s3.369-0.172,4.979-0.499l22.156,63.975H132.91z"/>
<line fill="none" stroke="#FFFFFF" stroke-width="8" stroke-miterlimit="10" x1="32.496" y1="242.174" x2="222.5" y2="242.174"/>
<line fill="none" stroke="#FFFFFF" stroke-width="8" stroke-miterlimit="10" x1="32.498" y1="11.187" x2="222.502" y2="11.187"/>
</svg>
