<?xml version="1.0" encoding="utf-8"?>
<!-- Generator: Adobe Illustrator 16.0.0, SVG Export Plug-In . SVG Version: 6.00 Build 0)  -->
<!DOCTYPE svg PUBLIC "-//W3C//DTD SVG 1.1//EN" "http://www.w3.org/Graphics/SVG/1.1/DTD/svg11.dtd">
<svg version="1.1" id="Warstwa_2" xmlns="http://www.w3.org/2000/svg" xmlns:xlink="http://www.w3.org/1999/xlink" x="0px" y="0px"
	 width="1920px" height="1024px" viewBox="0 0 1920 1024" enable-background="new 0 0 1920 1024" xml:space="preserve">
<rect x="727.041" y="1385.037" transform="matrix(-0.7071 -0.7071 0.7071 -0.7071 1603.4475 3729.179)" fill="#FFFFFF" width="1694.044" height="294.934"/>
<rect x="269.672" y="1353.197" transform="matrix(0.7071 0.7071 -0.7071 0.7071 1237.7061 -252.5769)" fill="#FFFFFF" width="1308.136" height="29.115"/>
<rect x="339.849" y="1211.766" transform="matrix(0.7071 0.7071 -0.7071 0.7071 1210.1348 -374.2495)" opacity="0.5" fill="#FFFFFF" width="1433.956" height="123.742"/>
<rect x="519.561" y="1051.577" transform="matrix(0.7071 0.7071 -0.7071 0.7071 1077.8318 -469.717)" fill="#FFFFFF" width="1172.706" height="29.242"/>
<rect x="276.863" y="914.407" transform="matrix(0.7071 0.7071 -0.7071 0.7071 985.9525 -533.0176)" fill="#FFFFFF" width="1719.045" height="18.468"/>
<rect x="12.404" y="994.843" transform="matrix(0.7071 0.7071 -0.7071 0.7071 983.8907 -370.2469)" fill="#FFFFFF" width="1852.937" height="15.39"/>
<rect x="130.009" y="894.275" transform="matrix(0.7071 0.7071 -0.7071 0.7071 946.0589 -476.97)" fill="#FFFFFF" width="1837.547" height="18.467"/>
<rect x="490.403" y="909.565" transform="matrix(-0.7071 -0.7071 0.7071 -0.7071 1627.3262 2522.4304)" fill="#FFFFFF" width="1691.344" height="29.24"/>
<rect x="-31.048" y="1138.037" transform="matrix(0.7071 0.7071 -0.7071 0.7071 1071.252 -291.6885)" fill="#FFFFFF" width="1837.546" height="18.469"/>
<rect x="181.494" y="1208.678" transform="matrix(-0.7071 -0.7071 0.7071 -0.7071 888.4783 2814.6177)" fill="#FFFFFF" width="1691.344" height="29.241"/>
<rect x="-187.785" y="1236.011" transform="matrix(0.7071 0.7071 -0.7071 0.7071 1094.6223 -152.1626)" fill="#FFFFFF" width="1837.546" height="18.468"/>
<rect x="299.877" y="730.404" transform="matrix(-0.7071 -0.7071 0.7071 -0.7071 1690.1702 2190.1392)" fill="#FFFFFF" width="1997.601" height="29.241"/>
<rect x="213.182" y="643.889" transform="matrix(0.7071 0.7071 -0.7071 0.7071 794.5348 -615.0099)" opacity="0.5" fill="#FFFFFF" width="1852.936" height="15.39"/>
<rect x="-203.064" y="1079.723" transform="matrix(0.7071 0.7071 -0.7071 0.7071 980.7996 -193.0266)" opacity="0.5" fill="#FFFFFF" width="1852.936" height="15.39"/>
<rect x="970.374" y="1066.778" transform="matrix(0.7071 0.7071 -0.7071 0.7071 1169.4418 -670.8466)" fill="#FFFFFF" width="848.26" height="18.88"/>
<rect x="1015.881" y="975.068" transform="matrix(0.7071 0.7071 -0.7071 0.7071 1151.5636 -749.7455)" opacity="0.5" fill="#FFFFFF" width="929.848" height="80.24"/>
<rect x="1132.414" y="871.194" transform="matrix(0.7071 0.7071 -0.7071 0.7071 1065.7743 -811.6516)" fill="#FFFFFF" width="760.441" height="18.961"/>
<rect x="975.037" y="782.245" transform="matrix(0.7071 0.7071 -0.7071 0.7071 1006.1925 -852.6981)" fill="#FFFFFF" width="1114.714" height="11.975"/>
<rect x="803.549" y="834.402" transform="matrix(0.7071 0.7071 -0.7071 0.7071 1004.854 -747.1494)" fill="#FFFFFF" width="1201.535" height="9.98"/>
<rect x="879.81" y="769.19" transform="matrix(0.7071 0.7071 -0.7071 0.7071 980.3223 -816.354)" fill="#FFFFFF" width="1191.557" height="11.975"/>
<rect x="983.313" y="656.451" transform="matrix(-0.7071 -0.7071 0.7071 -0.7071 2143.8687 2219.8848)" fill="#FFFFFF" width="1096.751" height="18.961"/>
<rect x="944.756" y="731.245" transform="matrix(-0.7071 -0.7071 0.7071 -0.7071 2056.6611 2376.7603)" opacity="0.5" fill="#FFFFFF" width="1151.637" height="62.372"/>
<rect x="775.372" y="927.258" transform="matrix(0.7071 0.7071 -0.7071 0.7071 1061.5046 -696.2081)" fill="#FFFFFF" width="1191.555" height="11.976"/>
<rect x="913.195" y="973.065" transform="matrix(-0.7071 -0.7071 0.7071 -0.7071 1800.2933 2710.7959)" fill="#FFFFFF" width="1096.751" height="18.961"/>
<rect x="673.736" y="990.788" transform="matrix(0.7071 0.7071 -0.7071 0.7071 1076.6592 -605.7323)" fill="#FFFFFF" width="1191.555" height="11.976"/>
<rect x="859.767" y="540.276" transform="matrix(-0.7071 -0.7071 0.7071 -0.7071 2184.6223 2004.4119)" fill="#FFFFFF" width="1295.342" height="18.961"/>
<rect x="803.55" y="484.174" transform="matrix(0.7071 0.7071 -0.7071 0.7071 757.2054 -849.7291)" opacity="0.5" fill="#FFFFFF" width="1201.535" height="9.98"/>
<rect x="663.828" y="889.444" transform="matrix(0.7071 0.7071 -0.7071 0.7071 1002.8516 -632.2306)" opacity="0.5" fill="#FFFFFF" width="1201.535" height="9.98"/>
<rect x="91.346" y="1363.568" transform="matrix(-0.7071 -0.7071 0.7071 -0.7071 121.181 2796.2905)" fill="#FFFFFF" width="1096.75" height="18.96"/>
<rect x="-32.201" y="1247.39" transform="matrix(-0.7071 -0.7071 0.7071 -0.7071 161.9339 2580.8164)" fill="#FFFFFF" width="1295.344" height="18.961"/>
<rect x="-88.418" y="1191.289" transform="matrix(0.7071 0.7071 -0.7071 0.7071 995.9606 -11.9039)" opacity="0.5" fill="#FFFFFF" width="1201.535" height="9.98"/>
<rect x="1123.65" y="1371.857" transform="matrix(-0.7071 -0.7071 0.7071 -0.7071 2358.4365 3821.4766)" fill="#FFFFFF" width="1694.044" height="100.866"/>
<rect x="1220.472" y="965.207" transform="matrix(-0.7071 -0.7071 0.7071 -0.7071 2779.0403 3273.5486)" opacity="0.5" fill="#FFFFFF" width="1694.045" height="192.017"/>
<rect x="-5.911" y="1319.686" transform="matrix(0.7071 0.7071 -0.7071 0.7071 1157.0649 -147.8655)" fill="#FFFFFF" width="1525.867" height="6.166"/>
<rect x="-39.53" y="826.208" transform="matrix(0.7071 0.7071 -0.7071 0.7071 798.2773 -268.6298)" fill="#FFFFFF" width="1525.867" height="6.166"/>
<rect x="342.981" y="802.389" transform="matrix(0.7071 0.7071 -0.7071 0.7071 893.468 -546.0823)" fill="#FFFFFF" width="1525.867" height="6.165"/>
<rect x="300.659" y="967.06" transform="matrix(0.7071 0.7071 -0.7071 0.7071 997.5129 -467.9253)" fill="#FFFFFF" width="1525.868" height="6.166"/>
<rect x="1363.286" y="774.426" transform="matrix(0.7071 0.7071 -0.7071 0.7071 1223.6969 -1390.0237)" fill="#FFFFFF" width="1852.937" height="15.389"/>
<rect x="1319.834" y="917.62" transform="matrix(0.7071 0.7071 -0.7071 0.7071 1311.0581 -1311.4651)" fill="#FFFFFF" width="1837.546" height="18.468"/>
<rect x="1532.375" y="988.262" transform="matrix(-0.7071 -0.7071 0.7071 -0.7071 3350.4363 3393.5598)" fill="#FFFFFF" width="1691.344" height="29.241"/>
<rect x="1163.096" y="1015.594" transform="matrix(0.7071 0.7071 -0.7071 0.7071 1334.4275 -1171.9385)" fill="#FFFFFF" width="1837.546" height="18.468"/>
<rect x="1147.818" y="859.306" transform="matrix(0.7071 0.7071 -0.7071 0.7071 1220.6047 -1212.8022)" opacity="0.5" fill="#FFFFFF" width="1852.936" height="15.39"/>
<rect x="1311.352" y="605.792" transform="matrix(0.7071 0.7071 -0.7071 0.7071 1038.0824 -1288.4055)" fill="#FFFFFF" width="1525.868" height="6.166"/>
<g>
</g>
<g>
</g>
<g>
</g>
<g>
</g>
<g>
</g>
<g>
</g>
</svg>
